<svg width="280" height="270" fill="none" xmlns="http://www.w3.org/2000/svg"><path fill-rule="evenodd" clip-rule="evenodd" d="M164.272 242.937c-35.681.259-76.3456 10.542-101.9833-14.179-25.7872-24.863-22.0942-66.058-18.0756-101.582 3.4952-30.8962 17.2396-58.4594 38.7309-81.008 22.191-23.2829 49.229-42.0452 81.328-44.957 35.128-3.1867 74.276 2.3855 97.624 28.7232 22.622 25.5188 13.543 63.2024 14.039 97.2418.509 34.899 13.117 74.94-11.16 100.109-24.423 25.318-65.255 15.396-100.503 15.652Z" fill="#1F3847"/><path d="M76.4089 264.308c-20.1685.495-21.7199-19.904-5.2748-69.663 5.2748-16.01.8067-25.529-10.86-23.057-7.6329 1.607-14.6454 13.784-21.2234 36.902-5.6471 19.966-11.7287 25.53-21.5957 19.966-10.2394-5.81-11.1081-17.493-3.0408-42.404 1.2411-3.77 2.7924-8.653 3.475-10.878 10.2395-32.576 39.2821-56.066 70.5587-57.116 15.2041-.494-.8068-3.647-15.8245-1.298-28.0496 4.45-55.5408 30.783-65.0354 62.492-12.3493 41.354-8.626 54.211 15.7624 54.272 13.5904.062 15.0177-1.544 24.3883-27.876 11.1081-31.154 19.2375-40.859 17.8103-21.203-.3724 4.698-15.5142 43.579-15.5142 59.465 0 17.988 14.0868 29.362 30.3457 24.478 6.8262-2.102 4.6543-4.327-3.9716-4.08Z" fill="#DDF0A7"/><path d="M153.98 144.391c-14.087-16.195-42.882-30.661-53.059-26.642-4.2194 1.668-3.5369 3.647 1.304 3.647 9.432 0 27.429 9.457 38.04 19.965 28.857 28.619 30.346 80.728 3.414 114.726-5.337 6.737-18.804 11.868-22.961-3.585-2.855-10.756-.063-19.657 5.15-31.958 9.184-21.511 8.254-31.154-3.164-31.154-8.688 0-11.543 3.956-21.783 30.288-8.2531 21.203-14.3348 35.791-16.0103 38.324-3.8475 5.75 3.0408 5.627 7.3847-.184 2.6685-3.585 9.3706-17.618 11.2946-23.613 4.22-13.043 8.005-27.755 15.018-37.027 3.599-4.821 6.454-5.006 5.585 1.67-.559 4.079-2.731 10.075-6.95 19.533-13.032 28.99-9.185 47.533 10.177 48.77 14.955.927 24.947-5.811 33.2-24.292 17.624-39.561 12.598-76.339-6.64-98.468Z" fill="#DDF0A7"/></svg>