<svg width="280" height="268" fill="none" xmlns="http://www.w3.org/2000/svg"><path fill-rule="evenodd" clip-rule="evenodd" d="M124.187.1708c33.839 1.9937 60.545 26.3147 83.104 51.6304 20.979 23.5434 37.701 51.6218 37.006 83.1568-.682 30.95-19.799 56.648-40.593 79.569-22.231 24.506-46.445 52.292-79.517 52.831-33.3497.544-59.4384-25.752-82.1505-50.195-21.6507-23.301-38.8218-50.454-40.8722-82.205-2.1912-33.928 6.6075-68.4579 29.5209-93.5625C54.5624 15.235 88.8424-1.9117 124.187.1708Z" fill="#1F3847"/><path d="M109.942 56.2063c17.699-1.2473 17.866-1.3304 17.866-3.6588 0-3.2431-7.813-10.5611-10.139-9.4801-.083.0832-4.154.4158-8.974.8315-29.418 2.4115-30.9978 3.0771-24.2665 9.8959 3.9057 3.9083 4.5713 3.9083 25.5135 2.4115ZM121.907 80.9024c1.828 4.0746 8.976 4.3248 36.731 1.4976 8.56-.9147 9.556-3.9923 2.658-8.5658-4.487-2.9936-7.561-3.1591-21.854-1.1633-15.873 2.0788-19.53 3.8243-17.535 8.2315ZM205.923 108.343c0-6.236-9.475-8.232-27.259-5.821-13.296 1.829-16.784 3.908-13.959 8.316 3.988 5.904 41.218 3.742 41.218-2.495ZM191.38 51.3002c4.239-3.4925-3.075-11.1431-10.221-10.7273-1.247.0832-6.814.4158-12.548.8316-19.113 1.3305-22.188 2.8275-17.285 8.6484 3.157 3.6588 35.899 4.7399 40.054 1.2473ZM141.935 112.668c0-3.493-9.723-7.983-15.457-7.235-.415.083-3.74.416-7.396.831-18.947 1.996-25.0131 6.404-16.371 12.058 4.903 3.16 39.224-1.746 39.224-5.654ZM237.501 76.4957c0-5.4883-9.64-8.3155-22.853-6.8187-14.792 1.7462-20.027 3.9922-17.617 7.7342 3.075 4.5735 40.47 3.7412 40.47-.9155ZM148.915 149.423c5.984-.499 14.792-1.081 19.445-1.414 9.391-.582 10.805-1.829 5.985-5.405-4.073-2.993-30.664-4.324-39.39-1.912-13.712 3.825-3.739 10.061 13.96 8.731ZM81.7698 142.355c-16.8698 2.744-22.6041 6.485-16.1222 10.643 5.9833 3.742 42.2984-2.079 39.4734-6.32-3.325-4.988-10.5536-6.402-23.3512-4.323ZM87.0884 88.9686c0-2.4946-3.4071-5.82-6.3157-6.3189-4.82-.8315-34.3207-.499-38.0602.4158-9.3904 2.2452-.5819 12.6387 5.5675 12.1398.4156-.0832 38.8084-2.7442 38.8084-6.2367ZM228.028 207.548c-5.07 1.081-4.572 5.156 1.329 9.479 1.994 1.498 30.996-1.163 32.824-3.076 4.987-4.906-19.611-9.562-34.153-6.403ZM278.053 107.181c-3.323-3.159-31.743-6.237-33.405-3.66-1.579 2.579.996 8.982 17.118 8.649 16.953-.25 20.609-.831 16.287-4.989ZM249.3 136.7c-1.661-1.496-32.242-1.912-41.882-.498-8.227 1.246-10.47 3.991-5.235 6.487 3.242 1.579 9.556.415 42.214-2.079 6.732-.583 7.729-1.332 4.903-3.91ZM214.981 171.958c-2.41-.832-17.036-1.08-24.016-.332-15.789 1.579-20.443 3.991-16.205 8.232 2.66 2.661 5.65 2.661 24.515-.084 7.978-1.163 15.789-2.078 17.285-2.078 4.155 0 3.075-4.158-1.579-5.738ZM146.34 179.276c-4.82-.832-29.419-.749-33.49 0-10.97 2.161.581 11.225 5.235 10.477 9.225-1.497 28.088-3.742 31.994-3.742 7.064 0 4.072-5.405-3.739-6.735ZM185.312 214.035c-2.492-2.246-28.004-4.575-34.153-3.077-8.393 2.079-2.245 10.643 6.897 9.645 7.479-.832 17.617-2.078 23.933-2.162 5.318 0 6.481-1.579 3.323-4.406Z" fill="#DDF0A7"/></svg>