<svg width="170" height="92" fill="none" xmlns="http://www.w3.org/2000/svg"><path d="M17.9428 12.0439c8.3216 5.8182 16.003 4.2729 25.422-5.2726C50.955-.865 56.5333-1.4107 63.5747 4.7711c11.3395 9.9091 19.7527 11.5453 27.4342 5.2726 8.7789-7.1818 10.3331-8.0913 14.0831-8.0913 4.297 0 6.675 1.182 9.693 4.7275 8.048 9.4545 16.643 9.8182 26.977.909 10.334-8.909 23.502-6.2725 14.449 2.9093-11.523 11.6364-29.721 14.7275-44.444 7.4548l-6.584-3.2733-5.7609 2.9093c-10.6079 5.4545-31.3665 3.9089-41.1513-2.9093l-2.469-1.7267-4.3896 3.0903C37.3294 25.9524.5678 23.2255.5678 12.3164c0-4.5454 10.9736-4.727 17.375-.2725ZM42.4502 42.2266c6.6757-5.0909 10.6079-7.4553 23.7763.5445 12.3455 7.4546 16.3692 7.2727 29.1718-1.3636 7.4987-5.0908 10.4247-5.0002 21.5817.5454 12.894 6.4546 22.77 6.4546 26.794 0 3.201-5.0911 16.826-5.4542 16.826-.3636 0 10.3636-30.361 16.3636-46.729 9.1818l-7.956-3.4545-4.39 2.7272c-11.705 7.0909-28.9885 7.3637-42.4312.5455l-4.7555-2.4536-7.2242 3.2718c-17.4664 7.9091-37.7677 7.7282-45.3578-.5446-3.8408-4.2727 6.2184-5.91 14.4486-2.4554 7.2243 3.0909 17.1006.8191 26.2453-6.1809ZM120.821 72.681c16.277 7.3636 21.947 7.1809 30.909-.6373 11.979-10.5454 24.508-6.8181 13.351 3.9091-11.796 11.4546-32.738 13-51.119 3.7273l-4.481-2.2727-5.761 3.1818c-11.6136 6.3636-27.0681 7.6364-39.5965 3.2727l-5.1212-1.8182-4.7551 3c-13.0769 8.2728-33.5612 9.0909-44.7178 1.8182-9.6933-6.3636-.5486-10.4545 10.7909-4.9091 5.8526 2.9091 10.1507 3.3646 15.1803 1.6373 2.8349-1 4.8465-2.1827 13.8083-8.7282 4.298-3.0909 11.9796-2.8182 19.021.6364 10.791 5.4545 19.9357 4.0909 30.635-4.5455 4.9381-3.8182 10.4241-3.4536 21.8561 1.7282Z" fill="#E2E8EB"/></svg>