<svg width="132" height="35" fill="none" xmlns="http://www.w3.org/2000/svg"><path d="M44.83 25.2047a2.6493 2.6493 0 0 1-1.67-.48 1.561 1.561 0 0 1-.63-1.31v-9.27a.2604.2604 0 0 1 .1735-.2778.2604.2604 0 0 1 .1165-.0122h1.68c.19 0 .28.1.28.29v8.55c0 .38.17.57.52.57a1.439 1.439 0 0 0 .44-.05c.2 0 .31.06.32.24l.15 1.25a.2608.2608 0 0 1-.0495.2096.2596.2596 0 0 1-.1905.1004 3.7666 3.7666 0 0 1-1.14.19ZM54.28 24.1347a4.7097 4.7097 0 0 1-6 0 4.0002 4.0002 0 0 1 0-5.63 4.7298 4.7298 0 0 1 6 0 4.0598 4.0598 0 0 1 0 5.62v.01Zm-4.42-1.32a2.1299 2.1299 0 0 0 2.86 0 2.2396 2.2396 0 0 0 0-2.94 2.1302 2.1302 0 0 0-2.86 0 2.2405 2.2405 0 0 0 0 2.94ZM64.66 17.6848c.19 0 .28.1.28.29v7.17a3.2592 3.2592 0 0 1-1.11 2.57 4.1997 4.1997 0 0 1-2.91 1 4.68 4.68 0 0 1-2.71-.75 2.9987 2.9987 0 0 1-1.31-2c0-.2 0-.29.27-.29h1.68a.37.37 0 0 1 .33.23c.109.3037.3262.5566.61.71a2.339 2.339 0 0 0 1.12.26 1.769 1.769 0 0 0 1.29-.46 1.6997 1.6997 0 0 0 .47-1.25v-.63a3.3501 3.3501 0 0 1-2.08.65 3.8803 3.8803 0 0 1-2.84-1.09 4 4 0 0 1 0-5.56 3.9114 3.9114 0 0 1 2.84-1.08 3.3601 3.3601 0 0 1 2.13.69v-.16a.26.26 0 0 1 .28-.29l1.66-.01Zm-3.88 5.72a1.7589 1.7589 0 0 0 1.37-.59 2.4497 2.4497 0 0 0 0-3 1.751 1.751 0 0 0-1.36-.58 1.7992 1.7992 0 0 0-1.39.59 2.1201 2.1201 0 0 0-.54 1.5 2.1605 2.1605 0 0 0 .53 1.49 1.8106 1.8106 0 0 0 1.39.59ZM73.57 24.1346a4.7298 4.7298 0 0 1-6 0 4.07 4.07 0 0 1 0-5.63 4.74 4.74 0 0 1 6 0 4.0598 4.0598 0 0 1 0 5.62v.01Zm-4.43-1.32a1.9992 1.9992 0 0 0 1.44.55 2 2 0 0 0 1.43-.55 2.2698 2.2698 0 0 0 0-2.94 1.999 1.999 0 0 0-1.43-.55 2.0008 2.0008 0 0 0-1.44.55 2.2703 2.2703 0 0 0 0 2.94ZM78.31 15.9847a1.4498 1.4498 0 0 1-1.91 0 1.211 1.211 0 0 1-.2806-1.3592 1.2114 1.2114 0 0 1 .2806-.4008 1.48 1.48 0 0 1 1.91 0 1.2085 1.2085 0 0 1 .3795.88 1.2093 1.2093 0 0 1-.3795.88Zm.21 9.22a2.6894 2.6894 0 0 1-1.67-.48 1.5795 1.5795 0 0 1-.62-1.31v-5.44a.2604.2604 0 0 1 .1735-.2778.2604.2604 0 0 1 .1165-.0122h1.68c.19 0 .28.1.28.29v4.72c0 .38.17.57.51.57a1.548 1.548 0 0 0 .45-.05c.2 0 .31.06.32.24l.15 1.25a.2608.2608 0 0 1-.0495.2096.2596.2596 0 0 1-.1905.1004 3.7863 3.7863 0 0 1-1.15.19ZM86.09 17.4447a3.9209 3.9209 0 0 1 2.86 1.08 4.1 4.1 0 0 1 0 5.59 3.8877 3.8877 0 0 1-1.3183.8381 3.888 3.888 0 0 1-1.5417.2519 3.4393 3.4393 0 0 1-2.09-.65v3.61c0 .19-.1.28-.29.28h-1.68a.2401.2401 0 0 1-.2733-.1649.24.24 0 0 1-.0067-.1151v-8.2a.5208.5208 0 0 0-.0208-.239.5208.5208 0 0 0-.3302-.3301.5207.5207 0 0 0-.239-.0209h-.33c-.22 0-.33-.08-.33-.24v-1.18a.3195.3195 0 0 1 .0567-.2056.3196.3196 0 0 1 .1733-.1244 3.0021 3.0021 0 0 1 1.08-.18 1.8505 1.8505 0 0 1 1.81 1 3.3714 3.3714 0 0 1 2.47-1Zm-1.56 5.37a1.9088 1.9088 0 0 0 1.38.5895 1.9099 1.9099 0 0 0 1.38-.5895 2.16 2.16 0 0 0 .55-1.53 2.13 2.13 0 0 0-.55-1.53 1.91 1.91 0 0 0-2.76 0 2.2106 2.2106 0 0 0-.53 1.53 2.24 2.24 0 0 0 .53 1.53ZM94.77 25.2047a4.8198 4.8198 0 0 1-2.57-.62 2.4404 2.4404 0 0 1-1.16-1.77c0-.2.07-.3.29-.3h1.47a.38.38 0 0 1 .33.22c.21.54.76.81 1.64.81.307.0141.6126-.0478.89-.18a.5793.5793 0 0 0 .34-.49c0-.26-.16-.44-.48-.56a5.4093 5.4093 0 0 0-1.17-.25 11.13 11.13 0 0 1-1.4-.25 2.2995 2.2995 0 0 1-1.17-.67 2.1411 2.1411 0 0 1-.4588-1.6434 2.1407 2.1407 0 0 1 .8888-1.4566 4.1206 4.1206 0 0 1 2.42-.64 4.4207 4.4207 0 0 1 2.36.59 2.2303 2.2303 0 0 1 1.1 1.57c0 .2-.09.3-.27.3h-1.48a.31.31 0 0 1-.3-.18 1.0004 1.0004 0 0 0-.52-.53 1.7605 1.7605 0 0 0-.86-.2 1.7414 1.7414 0 0 0-.85.17.5006.5006 0 0 0-.32.46.6402.6402 0 0 0 .48.59 5.415 5.415 0 0 0 1.19.3c.4677.0616.9317.1484 1.39.26a2.3002 2.3002 0 0 1 1.17.67 1.889 1.889 0 0 1 .49 1.37 2.0005 2.0005 0 0 1-.93 1.74 4.3694 4.3694 0 0 1-2.51.69ZM108.78 24.7047a.2738.2738 0 0 1-.004.1067.2689.2689 0 0 1-.046.0967.2692.2692 0 0 1-.18.1066 3.8574 3.8574 0 0 1-1.13.19c-.38.0394-.764-.02-1.114-.1724a2.214 2.214 0 0 1-.886-.6976 3.6199 3.6199 0 0 1-2.55.87 3.1004 3.1004 0 0 1-2.34-.91 3.279 3.279 0 0 1-.89-2.41v-3.91c0-.19.09-.29.28-.29h1.68c.19 0 .28.1.28.29v3.61a1.769 1.769 0 0 0 .43 1.23 1.4984 1.4984 0 0 0 1.15.47 1.6592 1.6592 0 0 0 1.2-.44c.152-.157.271-.3436.348-.5483.078-.2047.112-.4231.102-.6417v-3.68c0-.19.09-.29.28-.29h1.7c.19 0 .28.1.28.29v4.71c0 .39.17.58.5.58.155.006.31-.0108.46-.05a.259.259 0 0 1 .116-.0055.2588.2588 0 0 1 .107.0456.2648.2648 0 0 1 .077.0877c.018.0346.028.073.03.1122l.12 1.25ZM124.67 24.7047c.009.0358.01.0732.003.1094a.2622.2622 0 0 1-.045.0999.2464.2464 0 0 1-.083.0714.2436.2436 0 0 1-.105.0293 3.878 3.878 0 0 1-1.15.19 2.6695 2.6695 0 0 1-1.67-.48 1.5592 1.5592 0 0 1-.499-.571 1.5554 1.5554 0 0 1-.171-.739v-2.35a1.7699 1.7699 0 0 0-.42-1.23 1.4227 1.4227 0 0 0-.507-.3608 1.4234 1.4234 0 0 0-.613-.1092 1.255 1.255 0 0 0-.551.105 1.2552 1.2552 0 0 0-.449.335 1.779 1.779 0 0 0-.38 1.18v3.69c0 .19-.09.29-.28.29h-1.69a.2579.2579 0 0 1-.116-.0121.2585.2585 0 0 1-.162-.1614.256.256 0 0 1-.012-.1165v-3.61a1.8513 1.8513 0 0 0-.39-1.23 1.3 1.3 0 0 0-.448-.3465 1.296 1.296 0 0 0-.552-.1235 1.4506 1.4506 0 0 0-1.1.44 1.6514 1.6514 0 0 0-.41 1.18v3.69a.256.256 0 0 1-.012.1165.2606.2606 0 0 1-.161.1614.2637.2637 0 0 1-.117.0121h-1.63c-.19 0-.28-.1-.28-.29v-4.71a.5103.5103 0 0 0-.021-.239.5073.5073 0 0 0-.126-.2042.517.517 0 0 0-.204-.1259.521.521 0 0 0-.239-.0209h-.33c-.22 0-.33-.08-.33-.24v-1.18a.3207.3207 0 0 1 .23-.33 3.0025 3.0025 0 0 1 1.08-.18c.353-.0301.708.0403 1.023.2031.315.1628.577.4113.757.7169a3.3808 3.3808 0 0 1 2.54-.92 2.8702 2.8702 0 0 1 2.37 1.06 3.3 3.3 0 0 1 2.62-1.06 3.1636 3.1636 0 0 1 2.37.91c.304.3205.539.6994.692 1.1137.153.4142.221.8553.198 1.2963v1.93c0 .38.17.57.49.57a1.5 1.5 0 0 0 .46-.05c.207 0 .317.08.33.24l.09 1.25ZM7.41 16.3847a13.69 13.69 0 0 1 26.57 0h-1.2a9.6904 9.6904 0 0 0-5.67 1.73 2.8556 2.8556 0 0 1-.3.19h-.14a2.8556 2.8556 0 0 1-.3-.19 10.17 10.17 0 0 0-11.35 0 2.8556 2.8556 0 0 1-.3.19h-.14a2.8556 2.8556 0 0 1-.3-.19 9.6904 9.6904 0 0 0-5.67-1.73h-1.2Zm23.21 6.27a3.3702 3.3702 0 0 1 2.16-.71h1.61v-3.21h-1.61a6.3804 6.3804 0 0 0-3.83 1.22 3.6399 3.6399 0 0 1-4.32 0 6.8004 6.8004 0 0 0-7.77 0 3.6399 3.6399 0 0 1-4.32 0 6.3799 6.3799 0 0 0-3.88-1.22H7v3.21h1.61a3.3702 3.3702 0 0 1 2.16.71 6.7796 6.7796 0 0 0 7.76 0 3.3906 3.3906 0 0 1 2.16-.71 3.35 3.35 0 0 1 2.16.71 6.7996 6.7996 0 0 0 7.77 0Zm0 5.74a3.3702 3.3702 0 0 1 2.16-.71h1.61v-3.21h-1.61a6.3804 6.3804 0 0 0-3.83 1.22 3.6399 3.6399 0 0 1-4.32 0 6.8003 6.8003 0 0 0-7.77 0 3.6399 3.6399 0 0 1-4.32 0 6.3806 6.3806 0 0 0-3.88-1.22H7v3.21h1.61a3.3702 3.3702 0 0 1 2.16.71 6.7796 6.7796 0 0 0 7.76 0 3.3906 3.3906 0 0 1 2.16-.71 3.35 3.35 0 0 1 2.16.71 6.7996 6.7996 0 0 0 7.77 0Z" fill="#fff"/></svg>