<svg width="320" height="275" fill="none" xmlns="http://www.w3.org/2000/svg"><path fill-rule="evenodd" clip-rule="evenodd" d="M215.127 273.808c30.657-.835 64.627 1.359 86.083-20.486 21.338-21.726 19.094-55.428 18.331-85.824-.738-29.33-3.752-59.048-22.538-81.6303-20.563-24.7197-49.74-46.1014-81.876-43.8861-31.043 2.1401-48.923 32.8705-71.284 54.445-23.012 22.2024-54.957 39.3764-58.8046 71.0714-4.1219 33.953 12.642 68.962 39.1726 90.643 24.726 20.207 58.957 16.537 90.916 15.667Z" fill="#1F3847"/><path d="M113.177 51.6285c-19.9383-.4893-21.4721 19.6953-5.214 68.9335 5.214 15.842.797 25.261-10.7366 22.815-7.546-1.591-14.4785-13.64-20.9816-36.516-5.5828-19.7559-11.5951-25.2614-21.3497-19.7565-10.1227 5.7496-10.9816 17.3105-3.0061 41.9605 1.227 3.731 2.7605 8.562 3.4354 10.764 10.1229 32.234 38.8345 55.478 69.7546 56.517 15.031.489-.797 3.609-15.644 1.285-27.7301-4.404-54.908-30.46-64.2945-61.838-12.2086-40.9199-8.5276-53.6423 15.5828-53.7035 13.4356-.0611 14.8467 1.5286 24.1105 27.5845 10.9816 30.827 19.0182 40.431 17.6072 20.98-.368-4.648-15.3373-43.1213-15.3373-58.8409 0-17.7991 13.9263-29.0536 29.9993-24.2215 6.749 2.0796 4.602 4.2816-3.926 4.0369Z" fill="#DDF0A7"/><path d="M189.864 170.29c-13.926 16.025-42.392 30.339-52.453 26.362-4.172-1.651-3.498-3.609 1.287-3.609 9.326 0 27.117-9.358 37.608-19.756 28.527-28.319 30-79.8819 3.374-113.5229-5.276-6.6671-18.588-11.7438-22.699 3.5476-2.822 10.6428-.061 19.4506 5.092 31.6225 9.08 21.2858 8.159 30.8278-3.129 30.8278-8.589 0-11.411-3.914-21.533-29.9714-8.16-20.9798-14.173-35.4149-15.829-37.9226-3.803-5.6884 3.006-5.5667 7.3.1829 2.639 3.5476 9.265 17.4327 11.166 23.3658 4.172 12.9059 7.915 27.4633 14.847 36.6383 3.558 4.771 6.38 4.954 5.521-1.652-.551-4.037-2.699-9.969-6.871-19.328-12.883-28.6866-9.08-47.0362 10.061-48.2595 14.786-.9175 24.663 5.7495 32.823 24.038 17.423 39.1455 12.453 75.5385-6.565 97.4365Z" fill="#DDF0A7"/></svg>