<svg width="112" height="28" fill="none" xmlns="http://www.w3.org/2000/svg"><g clip-path="url(#a)"><path d="M24 14A12 12 0 1 1 12 2v6a6 6 0 1 0 6 6h6Z" fill="#C1D585"/><path d="M38.7 21.3c-.5067 0-.9433-.0567-1.31-.17-.36-.1133-.66-.2267-.9-.34-.2333-.1133-.42-.17-.56-.17-.14 0-.2667.0367-.38.11a2.6767 2.6767 0 0 0-.31.25c-.1.0933-.2067.1767-.32.25-.1067.0733-.2267.11-.36.11-.1667 0-.3067-.05-.42-.15-.1067-.1-.18-.2633-.22-.49l-.63-3.4c-.02-.16.0033-.2967.07-.41.0733-.12.1967-.21.37-.27.1867-.0667.3467-.0633.48.01.14.0667.2633.2.37.4.4067.7933.82 1.4133 1.24 1.86.42.4467.8467.7633 1.28.95.4333.18.8767.27 1.33.27.62 0 1.11-.1533 1.47-.46.3667-.3133.5533-.74.56-1.28 0-.36-.0867-.68-.26-.96-.1667-.28-.4933-.55-.98-.81-.4867-.2667-1.2033-.5467-2.15-.84-1.0333-.32-1.86-.6933-2.48-1.12-.62-.4333-1.07-.9467-1.35-1.54-.2733-.6-.41-1.3-.41-2.1 0-.8333.2-1.57.6-2.21.4067-.6467.9767-1.15 1.71-1.51.74-.36 1.6067-.54 2.6-.54.5733 0 1.05.0567 1.43.17.3867.1067.71.2167.97.33.26.1067.48.16.66.16.16 0 .2933-.0567.4-.17a8.64 8.64 0 0 1 .35-.35c.1267-.12.2933-.18.5-.18.1667 0 .31.0567.43.17.12.1067.2233.31.31.61l.92 3.34c.06.2067.0533.39-.02.55-.0733.1533-.1967.26-.37.32-.1867.0533-.35.0467-.49-.02-.14-.0733-.2567-.2-.35-.38-.4333-.8467-.89-1.5133-1.37-2-.48-.4933-.97-.8433-1.47-1.05-.4933-.2067-.9833-.31-1.47-.31-.6067 0-1.0833.1733-1.43.52-.3467.34-.52.7867-.52 1.34 0 .3467.08.6667.24.96.16.2867.4767.5733.95.86.48.28 1.18.5833 2.1.91 1.0333.3667 1.8567.7667 2.47 1.2.6133.4267 1.0533.9167 1.32 1.47.2733.5467.41 1.1867.41 1.92 0 .7733-.2 1.4767-.6 2.11-.4.6333-.9733 1.14-1.72 1.52-.74.3733-1.6367.56-2.69.56Zm6.9391-8.72-.41-.14c-.1467-.0533-.2534-.12-.32-.2-.0667-.08-.1-.1733-.1-.28 0-.1533.0533-.27.16-.35.1066-.0867.2433-.13.41-.13h.59c.14 0 .2633-.03.37-.09.1066-.06.2266-.17.36-.33l1.42-1.61c.1666-.1867.3266-.3267.48-.42.1533-.0933.3033-.14.45-.14.16 0 .2866.0533.38.16.0933.1067.14.2567.14.45v8.28c0 .4867.0866.8567.26 1.11.18.2467.43.37.75.37.2466 0 .4366-.0533.57-.16.1333-.1067.24-.23.32-.37.0866-.1467.17-.2767.25-.39.0866-.1133.2-.1767.34-.19.1066 0 .1933.0367.26.11.0666.0733.1.2033.1.39-.0067.4733-.15.9067-.43 1.3-.28.3933-.67.7067-1.17.94-.4934.2333-1.0567.35-1.69.35-.9667 0-1.72-.2367-2.26-.71-.5334-.4733-.8-1.19-.8-2.15v-5.2c0-.18-.0334-.31-.1-.39-.0667-.0867-.1767-.1567-.33-.21Zm2.66.05v-1.15h3.47c.1733 0 .31.0367.41.11.1.0733.15.1767.15.31 0 .2067-.1.38-.3.52-.2.14-.53.21-.99.21h-2.74Zm11.1626 7.07v-.22l-.25-.02v-6.24c0-.36-.0933-.6433-.28-.85-.1866-.2067-.4433-.31-.77-.31-.2866 0-.5166.0667-.69.2-.1733.1267-.26.2867-.26.48v.98c0 .48-.1633.8533-.49 1.12-.32.26-.7733.39-1.36.39-.5066 0-.8866-.1133-1.14-.34-.2466-.2267-.37-.54-.37-.94 0-.4267.1834-.8467.55-1.26.3667-.42.9167-.7667 1.65-1.04.7334-.28 1.6467-.42 2.74-.42 1.3134 0 2.29.2533 2.93.76.64.5.96 1.1867.96 2.06v4.99c0 .16.0334.2867.1.38.0734.0867.1767.13.31.13.1267 0 .2267-.0333.3-.1a1.3857 1.3857 0 0 0 .19-.21c.0467-.04.09-.0767.13-.11.04-.0333.09-.05.15-.05.1 0 .17.0367.21.11.04.0667.06.1533.06.26 0 .2533-.0933.52-.28.8-.18.28-.4533.52-.82.72-.36.1933-.81.29-1.35.29-.6666 0-1.2033-.1433-1.61-.43-.4066-.2867-.61-.6633-.61-1.13Zm-6.01-.81c0-.8667.3867-1.5567 1.16-2.07.78-.52 1.88-.78 3.3-.78.4067 0 .7667.0333 1.08.1.32.06.59.1467.81.26l-.27.72c-.1866-.0933-.37-.1633-.55-.21-.18-.0467-.3766-.07-.59-.07-.4333 0-.7766.1267-1.03.38-.2466.2533-.37.6133-.37 1.08 0 .4667.1134.8233.34 1.07.2267.2467.52.37.88.37.2734 0 .5334-.0633.78-.19.2534-.1267.4567-.2933.61-.5l.22.66c-.34.4933-.8133.8767-1.42 1.15-.6066.2667-1.2566.4-1.95.4-.8933 0-1.6166-.22-2.17-.66-.5533-.4467-.83-1.0167-.83-1.71Zm15.6435-3.26c0-.9867.1366-1.8067.41-2.46.2733-.66.63-1.15 1.07-1.47.44-.3267.92-.49 1.44-.49.66 0 1.17.1967 1.53.59.36.3867.54.96.54 1.72 0 .7267-.15 1.2667-.45 1.62-.3.3533-.6867.53-1.16.53-.4734 0-.8334-.1233-1.08-.37-.24-.2533-.3634-.6033-.37-1.05v-.39c-.0067-.1933-.05-.3367-.13-.43-.08-.1-.21-.15-.39-.15-.18 0-.35.08-.51.24-.16.1533-.29.3933-.39.72-.0934.3267-.14.7567-.14 1.29l-.37.1Zm.16-3.65.21 2.23v4.99c0 .2067.0333.3567.1.45.0733.0933.2166.1567.43.19l.81.15c.1733.0333.3.09.38.17.08.08.12.1967.12.35 0 .1533-.0534.2733-.16.36-.1067.0867-.2634.13-.47.13h-5.1c-.2134 0-.37-.0433-.47-.13-.1-.0867-.15-.2067-.15-.36 0-.1067.03-.2.09-.28.06-.0867.1566-.1567.29-.21l.32-.1c.1066-.04.1833-.11.23-.21.0533-.1.08-.2667.08-.5v-5.29c0-.18-.0267-.31-.08-.39-.0534-.08-.1367-.1333-.25-.16l-.38-.05c-.1267-.04-.22-.0933-.28-.16-.0534-.0733-.08-.1633-.08-.27 0-.1333.0366-.24.11-.32.08-.08.2166-.1533.41-.22l2.05-.75c.3866-.1533.6666-.25.84-.29.1733-.0467.3066-.07.4-.07.16 0 .28.0567.36.17.0866.1133.15.3033.19.57Zm6.1886.6-.41-.14c-.1467-.0533-.2534-.12-.32-.2-.0667-.08-.1-.1733-.1-.28 0-.1533.0533-.27.16-.35.1066-.0867.2433-.13.41-.13h.59c.14 0 .2633-.03.37-.09.1066-.06.2266-.17.36-.33l1.42-1.61c.1666-.1867.3266-.3267.48-.42.1533-.0933.3033-.14.45-.14.16 0 .2866.0533.38.16.0933.1067.14.2567.14.45v8.28c0 .4867.0866.8567.26 1.11.18.2467.43.37.75.37.2466 0 .4366-.0533.57-.16.1333-.1067.24-.23.32-.37.0866-.1467.17-.2767.25-.39.0866-.1133.2-.1767.34-.19.1066 0 .1933.0367.26.11.0666.0733.1.2033.1.39-.0067.4733-.15.9067-.43 1.3-.28.3933-.67.7067-1.17.94-.4934.2333-1.0567.35-1.69.35-.9667 0-1.72-.2367-2.26-.71-.5334-.4733-.8-1.19-.8-2.15v-5.2c0-.18-.0334-.31-.1-.39-.0667-.0867-.1767-.1567-.33-.21Zm2.66.05v-1.15h3.47c.1733 0 .31.0367.41.11.1.0733.15.1767.15.31 0 .2067-.1.38-.3.52-.2.14-.53.21-.99.21h-2.74Zm9.6426-.66v7.24c0 .2267.0233.3933.07.5.0467.1.1267.17.24.21l.3.1c.14.0533.24.12.3.2.06.08.09.1767.09.29 0 .1533-.05.2733-.15.36-.1.0867-.26.13-.48.13h-4.26c-.2133 0-.37-.0433-.47-.13-.1-.0867-.15-.2067-.15-.36 0-.1067.03-.2.09-.28.06-.0867.1567-.1567.29-.21l.32-.1c.1067-.04.1833-.11.23-.21.0533-.1.08-.2667.08-.5V13.9c0-.1867-.0267-.32-.08-.4-.0533-.08-.1367-.1333-.25-.16l-.38-.05c-.1267-.0333-.22-.0833-.28-.15-.0533-.0733-.08-.1667-.08-.28 0-.1267.0367-.2267.11-.3.0733-.08.21-.16.41-.24l2.11-.77c.2933-.12.5267-.2.7-.24.1733-.0467.3267-.07.46-.07.26 0 .4533.07.58.21.1333.1333.2.3067.2.52Zm-1.96-1.93c-.64 0-1.1467-.1533-1.52-.46-.3733-.3133-.56-.7333-.56-1.26 0-.5133.1867-.9233.56-1.23.3733-.3067.88-.46 1.52-.46.6333 0 1.1367.1533 1.51.46.38.3067.57.7167.57 1.23 0 .5267-.19.9467-.57 1.26-.3733.3067-.8767.46-1.51.46Zm13.4811 4.08c0 .44-.16.8133-.48 1.12-.32.3-.7467.45-1.28.45-.52 0-.9133-.14-1.18-.42-.2667-.2867-.4-.6533-.4-1.1v-.35c0-.44-.1133-.79-.34-1.05-.2267-.2667-.53-.4-.91-.4-.3267 0-.6233.11-.89.33-.2667.2133-.48.53-.64.95-.16.4133-.24.9233-.24 1.53 0 .8067.1367 1.4867.41 2.04.2733.5467.6467.9633 1.12 1.25.48.28 1.0233.42 1.63.42.5067 0 .95-.0867 1.33-.26.3867-.1733.7233-.4433 1.01-.81.1467-.1467.26-.2433.34-.29.0867-.0533.17-.08.25-.08.1133 0 .1967.0567.25.17.0533.1067.08.2367.08.39-.02.5867-.22 1.1267-.6 1.62-.38.4933-.9.89-1.56 1.19-.6533.2933-1.41.44-2.27.44-.9867 0-1.8633-.1967-2.63-.59-.7667-.4-1.3733-.9567-1.82-1.67-.4467-.72-.67-1.56-.67-2.52 0-1.0067.22-1.9067.66-2.7.44-.7933 1.0567-1.42 1.85-1.88.8-.46 1.74-.69 2.82-.69.86 0 1.6.1333 2.22.4.62.26 1.0967.61 1.43 1.05.34.44.51.9267.51 1.46Zm6.7335-2.91c1.073 0 2.013.2133 2.82.64.813.4267 1.443 1.02 1.89 1.78.453.7533.68 1.6333.68 2.64 0 .94-.237 1.7867-.71 2.54-.467.7533-1.114 1.35-1.94 1.79-.827.44-1.784.66-2.87.66-1.074 0-2.014-.2133-2.82-.64-.807-.4333-1.437-1.0267-1.89-1.78-.454-.76-.68-1.6367-.68-2.63 0-.96.233-1.8133.7-2.56.473-.7533 1.123-1.3467 1.95-1.78.826-.44 1.783-.66 2.87-.66Zm.71 8.85c.353-.06.633-.25.84-.57.206-.3267.323-.7833.35-1.37.033-.5933-.037-1.3233-.21-2.19-.16-.8533-.367-1.55-.62-2.09-.254-.5467-.544-.94-.87-1.18-.32-.24-.667-.3233-1.04-.25-.354.0667-.634.2633-.84.59-.2.32-.314.7733-.34 1.36-.027.5867.04 1.3167.2 2.19.166.84.376 1.5333.63 2.08.253.5467.54.94.86 1.18.326.2333.673.3167 1.04.25Z" fill="#162E3C"/></g><defs><clipPath id="a"><path fill="#fff" d="M0 0h112v28H0z"/></clipPath></defs></svg>