<svg width="270" height="250" fill="none" xmlns="http://www.w3.org/2000/svg"><g clip-path="url(#a)"><path fill-rule="evenodd" clip-rule="evenodd" d="M125.18 247.359c-36.3393.265-77.754 10.745-103.8648-14.452-26.2633-25.342-22.502-67.33-18.4093-103.539 3.5596-31.4913 17.5578-59.5854 39.4458-82.5686C64.9524 23.0681 92.4899 3.9442 125.18.9764c35.777-3.2481 75.648 2.4314 99.428 29.2766 23.039 26.0103 13.792 64.4199 14.298 99.115.518 35.571 13.359 76.384-11.368 102.037-24.872 25.807-66.458 15.693-102.358 15.954Z" fill="#1F3847"/><path d="M117.225 112.116c12.122-17.7911.588-34.6584-17.9324-26.2663-16.5846 7.5529-28.6232 25.1753-31.8222 46.6593-2.5256 16.701 34.8526 1.343 49.7546-20.393Zm-35.1063 12.169c5.893-13.763 14.3958-24.4205 23.8243-29.8753 5.051-2.9373 5.641-2.6016 4.715 2.6855-1.179 6.1268-16.4166 24.4208-25.256 30.0438-6.0614 3.86-6.1456 3.86-3.2833-2.854ZM244.428 69.4846c-18.773 5.1192-37.462 21.4838-37.462 32.9814 0 5.371 5.22 9.315 7.408 5.454.673-1.174 1.347-1.09 6.061 1.259 12.713 6.378 34.937-4.364 43.272-20.729 6.566-12.8399-3.873-23.1615-19.279-18.9654Zm8.671 10.658c-3.367 9.7349-31.485 27.9464-33.842 21.8194-1.263-3.1888 16.248-16.9519 28.034-22.0712 6.987-3.105 6.902-3.0211 5.808.2518ZM101.313 146.442c-10.1022 3.607-26.5184 21.902-26.5184 29.623 0 .587-1.3469 3.859-2.9465 7.216-8.7553 18.212 11.365 24.841 29.6339 9.82 28.202-23.247 28.117-56.73-.169-46.659Zm10.102 11.16c-5.976 19.722-32.5796 36.421-29.1279 33.233-1.1786.419-2.4415-.587-2.1889-1.846 2.1046-10.322 16.3321-27.61 27.8658-33.736 4.293-2.266 4.798-1.931 3.451 2.349ZM248.469 117.237c-21.804 6.797-48.743 32.897-42.345 40.954 9.007 11.413 40.661-.757 58.508-22.576 10.945-13.428 1.684-24.001-16.163-18.378Zm8.671 10.573c-4.714 8.728-40.662 32.058-44.45 29.624-2.525-1.594-.589-4.699 2.526-4.196 3.115.588 3.283.419 8.334-5.203 6.398-7.134 17.09-16.533 25.592-21.233 7.577-4.111 9.261-1.257 7.998 1.008ZM233.737 52.8688c29.885-17.7914 32.748-47.3317 3.956-40.2823-18.773 4.6156-35.695 22.3231-39.399 29.6243-3.704 7.4689-2.02 12.5042 4.041 11.4972 1.179-.1679 2.106-.0839 2.106.2518 0 6.378 17.931 5.7066 29.296-1.091Zm-12.123-17.7082c9.344-7.8886 24.077-15.9442 24.077-13.1748 0 4.6995-20.372 23.414-29.886 27.3583-5.977 2.4337-1.768-7.8055 5.809-14.1835ZM134.145 119.166c.674-.756 4.125-7.049 4.462-7.553.926 2.937 3.367 5.287 6.314 6.126 9.766 2.854 22.141-4.448 35.948-21.5675 5.219-6.4619 7.997-11.5812 8.333-15.5254 2.021-22.8267-55.477-5.2871-57.834 31.4709-.337 5.455 1.262 9.483 2.777 7.049Zm19.111-26.0996c12.29-12.3364 27.107-20.5607 25.507-14.1826-1.347 5.5388-8.755 13.7631-16.415 20.1411-5.136 4.3641-14.565 11.2451-16.585 9.1471-3.115-3.273 7.408-15.0217 7.493-15.1056ZM144.501 69.9042c14.984 0 40.576-24.0015 40.576-38.0164 0-8.9795-12.29-14.0144-23.992-9.9023-31.486 11.078-44.197 47.9187-16.584 47.9187Zm.083-13.2595c2.862-9.9028 10.439-18.7146 20.795-24.3372 6.145-3.3569 6.313-3.3569 5.135 0-3.2 9.567-28.456 33.2328-25.93 24.3372ZM169.924 125.461c-19.278 6.713-43.356 36.673-34.937 43.303 1.179.922 2.105 2.266 2.105 3.021 0 18.044 40.914-.084 51.522-22.743 7.829-16.448-2.442-29.288-18.69-23.581Zm8.839 13.342c-3.367 10.323-25.17 30.717-32.748 30.968-5.135.169 1.347-8.979 2.61-10.909 4.125-6.462 18.437-19.134 26.519-23.582 5.135-2.854 5.556-2.351 3.619 3.523Z" fill="#DDF0A7"/></g><defs><clipPath id="a"><path fill="#fff" d="M0 0h270v250H0z"/></clipPath></defs></svg>