<svg width="260" height="240" fill="none" xmlns="http://www.w3.org/2000/svg"><path fill-rule="evenodd" clip-rule="evenodd" d="M146.348.2647c-30.579 1.557-53.7525 24.0474-75.8109 45.1882C47.8537 67.1926 21.1373 89.588 20.4488 120.926c-.6967 31.712 23.4624 57.148 46.6979 78.849 22.3008 20.83 48.7023 36.538 79.2013 38.74 32.955 2.381 68.785-2.602 91.59-26.406 22.477-23.461 22.478-58.791 21.069-91.183-1.331-30.5857-7.738-61.1854-28.675-83.6093-21.673-23.2114-52.194-38.6706-83.984-37.052Z" fill="#1F3847"/><path d="M77.11 70.4769c-4.7318-4.1455-8.2334-11.1175-9.5583-16.6762-1.7981-7.914 8.9904-18.6544 17.7916.2828 6.7191 14.5091 13.9115 16.2992 19.6847 4.8992 5.773-11.4942 16.751-11.2117 13.249.2825-4.258 14.3207-29.6214 21.1985-41.167 11.2117ZM180.831 76.0358c-15.425 11.4942-34.069 3.3917-36.718-16.0165-1.704-12.3422 12.492-12.248 17.602.0942 6.435 15.5454 12.303 14.1322 15.52-3.7686 1.041-5.9356 7.382-9.1389 10.978-5.5587 4.826 4.805.662 19.2198-7.382 25.2496ZM139.001 114.758c-11.735 12.153-37.002 4.334-41.2604-12.719-2.3659-9.3272 12.3964-8.3851 19.6834 1.224 3.786 5.088 6.625 7.443 6.53 7.349 1.041.942 2.745.848 3.596-.282.852-1.131 2.65-4.617 3.88-7.82 2.745-6.8776 10.221-11.1172 13.628-7.7255 2.461 2.4496-1.325 15.0735-6.057 19.9735ZM142.882 144.341c-4.447-8.762 1.799-15.357 10.316-10.74 2.082 1.13 4.637 4.051 7.003 7.914 8.422 13.661 10.315 14.039 15.52 3.016 2.745-5.842 4.069-7.067 7.95-7.067 7.759 0 4.069 15.452-5.111 21.199-13.343 8.479-26.782 3.108-35.678-14.322ZM120.548 190.224c5.868-.565 7.287.094 13.06 6.124 7.476 7.82 14.006 2.92 15.237-11.494.378-4.711 3.974-5.465 7.097-1.602 11.924 15.074-14.952 35.801-31.892 24.589-8.612-5.747-10.883-16.958-3.502-17.617ZM13.2307 41.6471c1.5141 1.6959 4.2586 5.5587 6.0567 8.762 7.6655 13.7554 9.9368 13.6612 18.454-.4711 7.5709-12.6248 16.2774-10.8347 11.6402 2.2612-6.0567 17.1471-29.9996 23.5527-41.072 11.0221-15.4257-17.4297-3.2176-30.5246 4.9211-21.5742ZM42.8517 93.2767c1.8927 1.6959 4.8264 4.9934 6.4352 7.3483 8.5173 12.531 11.5456 12.154 17.7916-1.9781 3.8801-8.8562 15.2364-11.871 12.8705 1.5071-4.4479 24.496-45.6145 24.308-50.0624-2.9203-1.1356-6.8777 6.8137-9.4215 12.9651-3.957ZM76.0691 136.144c1.5142.754 6.0567 4.617 9.9368 8.386 12.3973 12.059 17.7921 12.059 22.7131-.471 2.271-5.748 3.123-6.501 6.814-6.501 7.571 0 5.583 14.132-2.745 19.596-17.0346 11.118-47.6967-.188-47.6967-17.618.0946-3.768 6.4353-5.747 10.9778-3.392Z" fill="#DDF0A7"/></svg>