<svg width="140" height="30" fill="none" xmlns="http://www.w3.org/2000/svg"><path d="M22.419 13.371a3.6562 3.6562 0 0 0-1.046 2.929l-.018-.018a4.3437 4.3437 0 0 1-2.8367 4.4451 4.3432 4.3432 0 0 1-1.8573.2489l.018.018a3.6783 3.6783 0 0 0-3.6703 2.0993 3.6785 3.6785 0 0 0-.2934 2.1978 3.6786 3.6786 0 0 0 2.9912 2.9884A3.678 3.678 0 0 0 20 24.312l.019.018a4.3438 4.3438 0 0 1 4.694-4.694l-.019-.018a3.6719 3.6719 0 0 0 3.2382-1.4176 3.6704 3.6704 0 0 0 .5405-3.4934 3.6712 3.6712 0 0 0-6.0507-1.336h-.003Z" fill="#fff"/><path d="m15.042 18.636-.019-.018a3.6318 3.6318 0 0 0 2.9306-1.0442A3.6311 3.6311 0 0 0 19 14.644l.019.018a4.3451 4.3451 0 0 1 .2488-1.8574A4.344 4.344 0 0 1 23.713 9.968l-.019-.018a3.6775 3.6775 0 0 0 3.6723-2.0969 3.6783 3.6783 0 0 0-.7277-4.1657 3.6778 3.6778 0 0 0-5.7947.777 3.6774 3.6774 0 0 0-.4679 2.1676l-.018-.019a4.3442 4.3442 0 0 1-1.2565 3.4375 4.344 4.344 0 0 1-3.4375 1.2565l.018.019a3.6316 3.6316 0 0 0-3.7835 2.3914A3.6325 3.6325 0 0 0 11.705 15.3l-.018-.018a4.346 4.346 0 0 1-1.2573 3.4367A4.3464 4.3464 0 0 1 6.993 19.976l.018.018a3.6775 3.6775 0 0 0-3.6724 2.0969 3.678 3.678 0 1 0 6.9904 1.2211l.019.018a4.3437 4.3437 0 0 1 2.8366-4.4451 4.3437 4.3437 0 0 1 1.8574-.2489Z" fill="#fff"/><path d="M8.34 16.6289a3.652 3.652 0 0 0 1.045-2.929l.019.018a4.3443 4.3443 0 0 1 2.838-4.4458A4.344 4.344 0 0 1 14.1 9.024l-.019-.018a3.677 3.677 0 1 0-3.318-3.318l-.018-.018A4.3435 4.3435 0 0 1 9.488 9.107a4.3434 4.3434 0 0 1-3.437 1.2569l.018.018a3.6712 3.6712 0 0 0-3.7776 4.9115 3.6706 3.6706 0 0 0 2.6585 2.3296 3.6712 3.6712 0 0 0 3.392-.9941h-.0019ZM39.317 6.655h2.97v14.453h-2.97V6.655ZM43.969 16.159a5.2465 5.2465 0 0 1 6.2577-5.1697 5.2468 5.2468 0 0 1 1.9066 9.5099 5.247 5.247 0 0 1-2.9173.8858 5.1872 5.1872 0 0 1-3.7202-1.5118 5.1868 5.1868 0 0 1-1.1373-1.7034 5.1869 5.1869 0 0 1-.3895-2.0108Zm7.524 0a2.2782 2.2782 0 1 0-4.3756.9494A2.2782 2.2782 0 0 0 49.216 18.5a2.2214 2.2214 0 0 0 2.139-1.4408 2.2203 2.2203 0 0 0 .138-.9002ZM66.3 11.2091v9.4c0 3.326-2.594 4.732-5.227 4.732a5.0626 5.0626 0 0 1-4.692-2.4l2.534-1.465a2.2626 2.2626 0 0 0 2.257 1.247 1.973 1.973 0 0 0 2.237-2.118v-.905a3.5161 3.5161 0 0 1-2.891 1.287 5.0307 5.0307 0 0 1-4.8724-5.0285 5.031 5.031 0 0 1 4.8724-5.0285 3.5167 3.5167 0 0 1 2.891 1.287v-1.01l2.891.002Zm-2.89 4.751a2.3997 2.3997 0 0 0-1.4113-2.2878 2.3994 2.3994 0 0 0-2.649.4568 2.3997 2.3997 0 0 0 .3208 3.721 2.3998 2.3998 0 0 0 1.3445.41 2.2395 2.2395 0 0 0 2.2293-1.3867 2.2387 2.2387 0 0 0 .1657-.9133ZM67.982 16.159a5.247 5.247 0 1 1 5.247 5.226 5.1868 5.1868 0 0 1-3.7202-1.5118 5.1868 5.1868 0 0 1-1.1373-1.7034 5.1869 5.1869 0 0 1-.3895-2.0108Zm7.524 0a2.2782 2.2782 0 1 0-4.3756.9494A2.2782 2.2782 0 0 0 73.229 18.5a2.2206 2.2206 0 0 0 1.6514-.6716 2.221 2.221 0 0 0 .6256-1.6694ZM79.861 8.556a1.782 1.782 0 1 1 1.782 1.7821 1.8003 1.8003 0 0 1-1.782-1.782Zm.3 2.653h2.971v9.9h-2.975l.004-9.9ZM95.956 16.159a4.9705 4.9705 0 0 1-1.2793 3.597 4.9723 4.9723 0 0 1-1.5637 1.1592 4.9725 4.9725 0 0 1-1.889.4698 3.716 3.716 0 0 1-2.949-1.208v4.891h-2.97V11.209h2.97v.93a3.7166 3.7166 0 0 1 2.949-1.207 4.9706 4.9706 0 0 1 4.452 3.3004 4.9702 4.9702 0 0 1 .28 1.9266Zm-2.97 0a2.3562 2.3562 0 0 0-2.8511-2.2442 2.3557 2.3557 0 0 0-1.675 3.2186 2.3556 2.3556 0 0 0 2.1711 1.4406 2.2594 2.2594 0 0 0 1.7185-.6799 2.2604 2.2604 0 0 0 .6365-1.7351ZM105.121 18.138c0 2.277-1.979 3.247-4.117 3.247a4.3354 4.3354 0 0 1-4.257-2.356l2.573-1.465a1.6272 1.6272 0 0 0 1.68 1.168c.712 0 1.069-.218 1.069-.613 0-1.09-4.871-.515-4.871-3.94 0-2.159 1.822-3.247 3.881-3.247a4.3292 4.3292 0 0 1 3.86 2.118l-2.534 1.366a1.4374 1.4374 0 0 0-1.326-.871c-.515 0-.832.2-.832.554.004 1.129 4.874.376 4.874 4.039ZM115.97 11.209v9.9H113v-.931a3.3863 3.3863 0 0 1-1.27.9445c-.492.21-1.026.3003-1.56.2635-2 0-3.7-1.425-3.7-4.1v-6.077h2.97v5.642a1.624 1.624 0 0 0 .079.6985 1.6313 1.6313 0 0 0 .949.992c.22.0865.457.1239.694.1095 1.089 0 1.841-.633 1.841-2.039v-5.4l2.967-.003ZM133 15.03v6.078h-2.97v-5.821c0-.99-.475-1.623-1.425-1.623-.99 0-1.545.693-1.545 1.861v5.583h-2.969v-5.821c0-.99-.475-1.623-1.426-1.623-.99 0-1.544.693-1.544 1.861v5.583h-2.97v-9.9h2.97v.91a3.0416 3.0416 0 0 1 1.175-.9312 3.0415 3.0415 0 0 1 1.478-.2558 2.9476 2.9476 0 0 1 1.469.3113c.454.2288.841.5716 1.124.9947a3.2614 3.2614 0 0 1 2.871-1.306c2.273.001 3.762 1.624 3.762 4.099ZM135.512 11.148c1.217 0 2.204-.9868 2.204-2.204 0-1.2173-.987-2.204-2.204-2.204s-2.204.9867-2.204 2.204c0 1.2172.987 2.204 2.204 2.204Z" fill="#fff"/></svg>