<svg width="132" height="35" fill="none" xmlns="http://www.w3.org/2000/svg"><path d="M38.51 11.26h3.21v13h-3.21v-13ZM43 19.37c0-3.22 2-5.15 5-5.15s5 1.93 5 5.15c0 3.22-1.93 5.17-5 5.17-3.07 0-5-1.88-5-5.17Zm6.82 0c0-1.77-.69-2.81-1.79-2.81s-1.78 1-1.78 2.81.68 2.8 1.78 2.8 1.81-.99 1.81-2.79l-.02-.01Zm4.46 5.56h3.1a1.6597 1.6597 0 0 0 1.74 1c1.23 0 1.87-.66 1.87-1.64v-1.8H61a3.0705 3.0705 0 0 1-3 1.75c-2.35 0-3.91-1.79-3.91-4.87s1.49-5 4-5a3.0699 3.0699 0 0 1 3 1.89H61v-1.81h3.18v9.74c0 2.35-2.08 3.82-5.14 3.82-2.78-.01-4.56-1.28-4.74-3.07l-.02-.01ZM61 19.37c0-1.57-.72-2.56-1.86-2.56-1.14 0-1.84 1-1.84 2.56s.69 2.48 1.84 2.48c1.15 0 1.86-.85 1.86-2.48Zm4.45 0c0-3.22 2-5.15 5-5.15s5 1.93 5 5.15c0 3.22-1.94 5.17-5 5.17s-4.98-1.88-4.98-5.17h-.02Zm6.82 0c0-1.77-.7-2.81-1.79-2.81s-1.78 1-1.78 2.81.68 2.8 1.78 2.8 1.81-.99 1.81-2.79l-.02-.01Zm4.48-7.29a1.6396 1.6396 0 0 1 .9624-1.5641 1.6395 1.6395 0 0 1 2.2791 1.1475 1.6404 1.6404 0 0 1-.6835 1.7046 1.64 1.64 0 0 1-.918.282 1.5816 1.5816 0 0 1-.6123-.1067 1.5814 1.5814 0 0 1-.8779-.8455 1.5796 1.5796 0 0 1-.1298-.6078l-.02-.01Zm0 2.36H80v9.86h-3.2l-.05-9.86Zm14.94 4.93c0 3.21-1.44 5.07-3.89 5.07a3.0703 3.0703 0 0 1-3-1.83h-.06v4.86h-3.21v-13h3.19v1.76h.06a3.0904 3.0904 0 0 1 3-1.9c2.52-.02 3.97 1.83 3.97 5.05l-.06-.01Zm-3.27 0c0-1.56-.73-2.57-1.86-2.57-1.13 0-1.84 1-1.85 2.57-.01 1.57.72 2.56 1.85 2.56 1.13 0 1.92-.93 1.92-2.55l-.06-.01Zm8.75-5.16c2.69 0 4.36 1.27 4.38 3.31h-2.93c0-.71-.59-1.15-1.47-1.15s-1.3.34-1.3.85.37.67 1.11.82l2.06.42c2 .42 2.8 1.22 2.8 2.71 0 2-1.85 3.36-4.6 3.36-2.75 0-4.54-1.32-4.67-3.33h3.11c.09.73.67 1.16 1.61 1.16.94 0 1.38-.3 1.38-.83s-.3-.62-1.07-.78l-1.86-.39c-1.93-.41-2.94-1.42-2.94-2.93.06-1.96 1.74-3.21 4.45-3.21l-.06-.01Zm15.4 10.08h-3.11v-1.85h-.06a2.8178 2.8178 0 0 1-1.075 1.529 2.8208 2.8208 0 0 1-1.795.521 3.4291 3.4291 0 0 1-2.596-1.0638 3.4242 3.4242 0 0 1-.75-1.2233A3.4238 3.4238 0 0 1 103 20.78v-6.33h3.21v5.64c0 1.16.61 1.79 1.61 1.79.235-.0018.466-.0539.679-.1527.213-.0989.402-.2423.554-.4205.153-.1782.266-.3871.331-.6125.064-.2255.08-.4622.046-.6943v-5.55h3.2l-.06 9.84Zm1.55-9.85h3.12v1.9h.07a2.8601 2.8601 0 0 1 1.05-1.5194 2.8628 2.8628 0 0 1 1.76-.5606 2.558 2.558 0 0 1 1.774.5149c.507.3865.851.9482.966 1.5751h.14c.2-.6303.602-1.1769 1.145-1.5548A2.9993 2.9993 0 0 1 126 14.26c.439-.0167.877.0595 1.284.2236a3.1155 3.1155 0 0 1 1.769 1.8351c.15.4132.21.8532.177 1.2913v6.69H126v-5.87c0-1-.47-1.56-1.38-1.56a1.3964 1.3964 0 0 0-1.07.4709 1.4065 1.4065 0 0 0-.293.5224 1.4165 1.4165 0 0 0-.047.5967v5.84h-3.06v-5.9c0-1-.49-1.53-1.37-1.53a1.4326 1.4326 0 0 0-1.081.4803 1.4305 1.4305 0 0 0-.296.527 1.4138 1.4138 0 0 0-.053.6027v5.82h-3.21l-.02-9.86ZM32.16 12.11a9.8802 9.8802 0 0 0-12.1187-9.6235A9.88 9.88 0 0 0 15 5.43H2.52v26.34h26.35V19.46a9.8697 9.8697 0 0 0 3.29-7.35Zm-5.07 0a4.8202 4.8202 0 0 1-2.9685 4.4602 4.8193 4.8193 0 0 1-5.2562-1.0384 4.8199 4.8199 0 0 1 .7258-7.4188 4.8203 4.8203 0 0 1 6.0836.5952A4.8196 4.8196 0 0 1 27.09 12.11ZM23.8 26.7H7.59V10.5h4.94a9.5539 9.5539 0 0 0-.15 1.61A9.9002 9.9002 0 0 0 22.27 22a9.6703 9.6703 0 0 0 1.53-.13v4.83Z" fill="#fff"/></svg>