<svg width="134" height="34" fill="none" xmlns="http://www.w3.org/2000/svg"><path d="M15.45 6.65V2.4H2.05v29.2h13.4v-4.25a10.35 10.35 0 0 1 0-20.7ZM15.45 6.65v20.7a10.3501 10.3501 0 0 0 7.3186-17.6685A10.3501 10.3501 0 0 0 15.45 6.65ZM33.32 9.25h3V23.7h-3V9.25ZM38 18.75A5.25 5.25 0 1 1 43.22 24a5.1816 5.1816 0 0 1-3.7138-1.5275A5.1812 5.1812 0 0 1 38 18.75Zm7.52 0a2.2797 2.2797 0 0 0-1.4483-2.0632 2.2792 2.2792 0 0 0-1.3121-.1054 2.2795 2.2795 0 0 0-1.6197 3.1144A2.2799 2.2799 0 0 0 43.24 21.09a2.2192 2.2192 0 0 0 2.1234-1.444 2.2188 2.2188 0 0 0 .1366-.896h.02Z" fill="#fff"/><path d="M60.31 13.8v9.41c0 3.32-2.6 4.73-5.23 4.73a5.0001 5.0001 0 0 1-4.69-2.4l2.53-1.46a2.2704 2.2704 0 0 0 2.26 1.25 2.0008 2.0008 0 0 0 1.6193-.5324A1.9993 1.9993 0 0 0 57.42 23.21v-.91a3.5301 3.5301 0 0 1-2.89 1.28 4.9999 4.9999 0 0 1-3.5355-8.5355A4.9999 4.9999 0 0 1 54.53 13.58a3.5302 3.5302 0 0 1 2.89 1.28v-1l2.89-.06Zm-2.89 4.75a2.4004 2.4004 0 0 0-1.4102-2.2873 2.3996 2.3996 0 0 0-2.6483.4545A2.4 2.4 0 0 0 55.02 20.85a2.2408 2.2408 0 0 0 1.7108-.617 2.239 2.239 0 0 0 .6892-1.683ZM62 18.75a5.2502 5.2502 0 0 1 6.2779-5.1484 5.2503 5.2503 0 0 1 1.8816 9.5185A5.2497 5.2497 0 0 1 67.24 24 5.19 5.19 0 0 1 62 18.75Zm7.52 0a2.2805 2.2805 0 0 0-1.4506-2.0641 2.2794 2.2794 0 0 0-2.4651.5366A2.2797 2.2797 0 0 0 67.25 21.09a2.2192 2.2192 0 0 0 2.1234-1.444 2.2188 2.2188 0 0 0 .1366-.896h.01ZM73.87 11.15a1.78 1.78 0 1 1 1.78 1.78 1.8 1.8 0 0 1-1.78-1.78Zm.29 2.65h3v9.9h-3v-9.9ZM90 18.75A5.0002 5.0002 0 0 1 85.23 24a3.7197 3.7197 0 0 1-3-1.21v4.89h-3V13.8h3v.93a3.7101 3.7101 0 0 1 3-1.2 4.9994 4.9994 0 0 1 4.4759 3.2914A4.9991 4.9991 0 0 1 90 18.75Zm-3 0a2.36 2.36 0 1 0-2.35 2.42A2.2598 2.2598 0 0 0 87 18.75ZM99.13 20.73c0 2.28-2 3.25-4.12 3.25a4.3402 4.3402 0 0 1-4.26-2.36l2.58-1.46A1.62 1.62 0 0 0 95 21.33c.71 0 1.07-.22 1.07-.62 0-1.09-4.87-.51-4.87-3.94 0-2.16 1.82-3.24 3.88-3.24A4.3394 4.3394 0 0 1 99 15.64L96.42 17a1.4601 1.4601 0 0 0-1.33-.87c-.52 0-.83.2-.83.55 0 1.14 4.87.39 4.87 4.05ZM110 13.8v9.9h-3v-.93a3.4171 3.4171 0 0 1-1.263.9511A3.4103 3.4103 0 0 1 104.18 24c-2 0-3.71-1.43-3.71-4.1v-6.1h3v5.65c-.024.2362.004.4747.082.6991.078.2243.203.4291.367.6003.165.1711.365.3045.586.391.221.0864.458.1238.695.1096 1.08 0 1.84-.64 1.84-2V13.8H110ZM127 17.62v6.08h-3v-5.82c0-1-.47-1.62-1.42-1.62s-1.55.69-1.55 1.86v5.58h-3v-5.82c0-1-.47-1.62-1.42-1.62s-1.55.69-1.55 1.86v5.58h-3v-9.9h3v.91c.311-.402.716-.7204 1.181-.9264.464-.206.973-.2932 1.479-.2536a2.9305 2.9305 0 0 1 2.59 1.3c.33-.4416.766-.7924 1.268-1.0197a3.2562 3.2562 0 0 1 1.602-.2803c2.34 0 3.82 1.62 3.82 4.09ZM129.52 13.74c1.215 0 2.2-.985 2.2-2.2 0-1.215-.985-2.2-2.2-2.2-1.215 0-2.2.985-2.2 2.2 0 1.215.985 2.2 2.2 2.2Z" fill="#fff"/></svg>