<svg width="91" height="66" viewBox="0 0 91 66" fill="none" xmlns="http://www.w3.org/2000/svg">
<path fill-rule="evenodd" clip-rule="evenodd" d="M45.5 0L0.5 65.4546H90.5L45.5 0ZM83.4275 64.7386H7.5725L45.5 56.9807L83.4275 64.7386ZM6.0467 64.32L45.5 56.25L84.9533 64.32L45.5 50.87L6.0467 64.32ZM45.5 44.7705L6.3173 63.4714L45.5 50.1136L84.6827 63.4714L45.5 44.7705ZM6.6596 62.5147L45.5 43.9773L84.3404 62.5147L45.5 38.6809L6.6596 62.5147ZM45.5 32.5994L7.0625 61.4276L45.5 37.8409L83.9375 61.4276L45.5 32.5994ZM7.5155 60.193L45.5 31.7045L83.4845 60.193L45.5 26.5248L7.5155 60.193ZM45.5 20.4558L8.0095 58.7984L45.5 25.5682L82.9905 58.7984L45.5 20.4558ZM8.5369 57.235L45.5 19.4318L82.463 57.2349L45.5 14.3914L8.5369 57.235ZM45.5 7.3209L7.9456 56.8245L45.5 13.2955L83.0544 56.8245L45.5 7.3209ZM9.7669 53.2391L45.5 6.1364L81.2331 53.239L45.5 1.2637L9.7669 53.2391Z" fill="#DDF0A7"/>
</svg>
