<svg width="101" height="100" fill="none" xmlns="http://www.w3.org/2000/svg"><path d="M90.0486 34c0 5.2598-4.2756 10.1431-11.4662 13.7384-7.1636 3.5818-17.0916 5.8102-28.0824 5.8102s-20.9188-2.2284-28.0824-5.8102C15.227 44.1431 10.9514 39.2598 10.9514 34s4.2756-10.1431 11.4662-13.7384c7.1636-3.5818 17.0916-5.8102 28.0824-5.8102s20.9188 2.2284 28.0824 5.8102C85.773 23.8569 90.0486 28.7402 90.0486 34Z" stroke="#DDF0A7" stroke-width=".9028"/><path d="M90.0486 36.2222c0 5.2597-4.2756 10.1431-11.4662 13.7384-7.1636 3.5818-17.0916 5.8102-28.0824 5.8102s-20.9188-2.2284-28.0824-5.8102c-7.1906-3.5953-11.4662-8.4787-11.4662-13.7384 0-5.2598 4.2756-10.1431 11.4662-13.7384 7.1636-3.5818 17.0916-5.8102 28.0824-5.8102s20.9188 2.2284 28.0824 5.8102c7.1906 3.5953 11.4662 8.4786 11.4662 13.7384Z" stroke="#DDF0A7" stroke-width=".9028"/><path d="M90.0486 38.4445c0 5.2597-4.2756 10.1431-11.4662 13.7384C71.4188 55.7647 61.4908 57.993 50.5 57.993s-20.9188-2.2283-28.0824-5.8101c-7.1906-3.5953-11.4662-8.4787-11.4662-13.7384 0-5.2598 4.2756-10.1431 11.4662-13.7384 7.1636-3.5818 17.0916-5.8103 28.0824-5.8103s20.9188 2.2285 28.0824 5.8103c7.1906 3.5953 11.4662 8.4786 11.4662 13.7384Z" stroke="#DDF0A7" stroke-width=".9028"/><path d="M90.0486 40.6665c0 5.2598-4.2756 10.1431-11.4662 13.7384-7.1636 3.5818-17.0916 5.8102-28.0824 5.8102s-20.9188-2.2284-28.0824-5.8102c-7.1906-3.5953-11.4662-8.4786-11.4662-13.7384 0-5.2597 4.2756-10.1431 11.4662-13.7384 7.1636-3.5818 17.0916-5.8102 28.0824-5.8102s20.9188 2.2284 28.0824 5.8102c7.1906 3.5953 11.4662 8.4787 11.4662 13.7384Z" stroke="#DDF0A7" stroke-width=".9028"/><path d="M90.0486 42.8889c0 5.2598-4.2756 10.1431-11.4662 13.7384-7.1636 3.5818-17.0916 5.8102-28.0824 5.8102s-20.9188-2.2284-28.0824-5.8102c-7.1906-3.5953-11.4662-8.4786-11.4662-13.7384 0-5.2597 4.2756-10.1431 11.4662-13.7384 7.1636-3.5818 17.0916-5.8102 28.0824-5.8102s20.9188 2.2284 28.0824 5.8102c7.1906 3.5953 11.4662 8.4787 11.4662 13.7384Z" stroke="#DDF0A7" stroke-width=".9028"/><path d="M90.0486 45.1111c0 5.2597-4.2756 10.1431-11.4662 13.7384-7.1636 3.5818-17.0916 5.8102-28.0824 5.8102s-20.9188-2.2284-28.0824-5.8102c-7.1906-3.5953-11.4662-8.4787-11.4662-13.7384 0-5.2598 4.2756-10.1431 11.4662-13.7384 7.1636-3.5818 17.0916-5.8102 28.0824-5.8102s20.9188 2.2284 28.0824 5.8102c7.1906 3.5953 11.4662 8.4786 11.4662 13.7384Z" stroke="#DDF0A7" stroke-width=".9028"/><path d="M90.0486 47.3335c0 5.2597-4.2756 10.1431-11.4662 13.7384-7.1636 3.5818-17.0916 5.8102-28.0824 5.8102s-20.9188-2.2284-28.0824-5.8102c-7.1906-3.5953-11.4662-8.4787-11.4662-13.7384 0-5.2598 4.2756-10.1431 11.4662-13.7384 7.1636-3.5818 17.0916-5.8102 28.0824-5.8102s20.9188 2.2284 28.0824 5.8102c7.1906 3.5953 11.4662 8.4786 11.4662 13.7384Z" stroke="#DDF0A7" stroke-width=".9028"/><path d="M90.0486 49.5554c0 5.2598-4.2756 10.1431-11.4662 13.7384-7.1636 3.5818-17.0916 5.8103-28.0824 5.8103s-20.9188-2.2285-28.0824-5.8103c-7.1906-3.5953-11.4662-8.4786-11.4662-13.7384 0-5.2597 4.2756-10.1431 11.4662-13.7384 7.1636-3.5818 17.0916-5.8102 28.0824-5.8102s20.9188 2.2284 28.0824 5.8102c7.1906 3.5953 11.4662 8.4787 11.4662 13.7384Z" stroke="#DDF0A7" stroke-width=".9028"/><path d="M90.0486 51.7779c0 5.2598-4.2756 10.143-11.4662 13.7383-7.1636 3.5818-17.0916 5.8103-28.0824 5.8103s-20.9188-2.2285-28.0824-5.8103c-7.1906-3.5953-11.4662-8.4785-11.4662-13.7383 0-5.2597 4.2756-10.1432 11.4662-13.7385 7.1636-3.5818 17.0916-5.8102 28.0824-5.8102s20.9188 2.2284 28.0824 5.8102c7.1906 3.5953 11.4662 8.4788 11.4662 13.7385Z" stroke="#DDF0A7" stroke-width=".9028"/><path d="M90.0486 54c0 5.2598-4.2756 10.1431-11.4662 13.7384-7.1636 3.5818-17.0916 5.8102-28.0824 5.8102s-20.9188-2.2284-28.0824-5.8102C15.227 64.1431 10.9514 59.2598 10.9514 54s4.2756-10.1431 11.4662-13.7384c7.1636-3.5818 17.0916-5.8102 28.0824-5.8102s20.9188 2.2284 28.0824 5.8102C85.773 43.8569 90.0486 48.7402 90.0486 54Z" stroke="#DDF0A7" stroke-width=".9028"/><path d="M90.0486 56.2222c0 5.2597-4.2756 10.1431-11.4662 13.7384-7.1636 3.5818-17.0916 5.8102-28.0824 5.8102s-20.9188-2.2284-28.0824-5.8102c-7.1906-3.5953-11.4662-8.4787-11.4662-13.7384 0-5.2598 4.2756-10.1431 11.4662-13.7384 7.1636-3.5818 17.0916-5.8102 28.0824-5.8102s20.9188 2.2284 28.0824 5.8102c7.1906 3.5953 11.4662 8.4786 11.4662 13.7384Z" stroke="#DDF0A7" stroke-width=".9028"/><path d="M90.0486 58.4445c0 5.2597-4.2756 10.143-11.4662 13.7383-7.1636 3.5818-17.0916 5.8103-28.0824 5.8103s-20.9188-2.2285-28.0824-5.8103c-7.1906-3.5953-11.4662-8.4786-11.4662-13.7383 0-5.2598 4.2756-10.1431 11.4662-13.7384 7.1636-3.5818 17.0916-5.8103 28.0824-5.8103s20.9188 2.2285 28.0824 5.8103c7.1906 3.5953 11.4662 8.4786 11.4662 13.7384Z" stroke="#DDF0A7" stroke-width=".9028"/><path d="M90.0486 60.6665c0 5.2598-4.2756 10.1431-11.4662 13.7384-7.1636 3.5818-17.0916 5.8102-28.0824 5.8102s-20.9188-2.2284-28.0824-5.8102c-7.1906-3.5953-11.4662-8.4786-11.4662-13.7384 0-5.2597 4.2756-10.1431 11.4662-13.7384 7.1636-3.5818 17.0916-5.8102 28.0824-5.8102s20.9188 2.2284 28.0824 5.8102c7.1906 3.5953 11.4662 8.4787 11.4662 13.7384Z" stroke="#DDF0A7" stroke-width=".9028"/><path d="M90.0486 62.8889c0 5.2598-4.2756 10.1431-11.4662 13.7384-7.1636 3.5818-17.0916 5.8102-28.0824 5.8102s-20.9188-2.2284-28.0824-5.8102c-7.1906-3.5953-11.4662-8.4786-11.4662-13.7384 0-5.2597 4.2756-10.1431 11.4662-13.7384 7.1636-3.5818 17.0916-5.8102 28.0824-5.8102s20.9188 2.2284 28.0824 5.8102c7.1906 3.5953 11.4662 8.4787 11.4662 13.7384Z" stroke="#DDF0A7" stroke-width=".9028"/><path d="M90.0486 65.1111c0 5.2597-4.2756 10.1431-11.4662 13.7384-7.1636 3.5818-17.0916 5.8102-28.0824 5.8102s-20.9188-2.2284-28.0824-5.8102c-7.1906-3.5953-11.4662-8.4787-11.4662-13.7384 0-5.2598 4.2756-10.1431 11.4662-13.7384 7.1636-3.5818 17.0916-5.8102 28.0824-5.8102s20.9188 2.2284 28.0824 5.8102c7.1906 3.5953 11.4662 8.4786 11.4662 13.7384Z" stroke="#DDF0A7" stroke-width=".9028"/></svg>