<svg width="170" height="152" fill="none" xmlns="http://www.w3.org/2000/svg"><path d="M74.9763 146.392c-19.9603.488-21.4957-19.608-5.2204-68.6309 5.2204-15.7725.7984-25.1507-10.7478-22.7148-7.5542 1.5834-14.4943 13.5796-21.0044 36.3552-5.5888 19.6695-11.6076 25.1515-21.3728 19.6705-10.1337-5.724-10.9935-17.2346-3.0094-41.7762 1.2283-3.7148 2.7635-8.5251 3.4391-10.7174C27.1945 26.4854 55.9373 3.344 86.891 2.3087c15.047-.4871-.7984-3.5927-15.6611-1.2786C43.4698 5.4148 16.2624 31.3566 6.8658 62.597c-12.2219 40.741-8.537 53.407 15.5996 53.468 13.4502.061 14.8628-1.521 24.1366-27.4642C57.5955 57.9085 65.641 48.3476 64.2284 67.713c-.3685 4.6282-15.354 42.933-15.354 58.583 0 17.722 13.9415 28.927 30.0325 24.116 6.7558-2.071 4.6062-4.263-3.9306-4.02Z" fill="#162E3C"/><path d="M151.746 28.2516C137.805 12.2963 109.308-1.9541 99.2357 2.0042c-4.1764 1.6443-3.5009 3.5932 1.2893 3.5932 9.335 0 27.146 9.3172 37.649 19.6697 28.558 28.1955 30.032 79.5319 3.377 113.0259-5.282 6.637-18.609 11.692-22.724-3.532-2.825-10.596-.061-19.366 5.098-31.485 9.09-21.1916 8.168-30.6916-3.133-30.6916-8.598 0-11.423 3.8974-21.5563 29.8396-8.1684 20.888-14.1872 35.26-15.8454 37.756-3.8078 5.664 3.0093 5.543 7.3084-.181 2.6409-3.532 9.274-17.357 11.1773-23.264 4.176-12.85 7.923-27.3429 14.863-36.4775 3.562-4.75 6.387-4.9327 5.527 1.6442-.552 4.0192-2.702 9.9263-6.878 19.2433-12.898 28.561-9.09 46.83 10.072 48.048 14.802.914 24.689-5.724 32.858-23.932 17.442-38.9747 12.467-75.2081-6.572-97.0094Z" fill="#162E3C"/></svg>