<svg width="20" height="20" fill="none" xmlns="http://www.w3.org/2000/svg"><path d="M9.0709.6446a.992.992 0 0 1 1.8582 0l2.0288 5.0725c.145.3623.4727.6099.8488.6412l5.266.439c.8922.0744 1.254 1.2323.5742 1.8379l-4.0121 3.574c-.2866.2552-.4118.6559-.3242 1.0374l1.2257 5.3439c.2077.9054-.7394 1.6211-1.5033 1.1359l-4.5085-2.8637a.9731.9731 0 0 0-1.049 0L4.967 19.7264c-.7639.4852-1.711-.2305-1.5034-1.1359l1.2258-5.3439c.0876-.3815-.0376-.7822-.3241-1.0374L.353 8.6352c-.6798-.6056-.318-1.7635.5742-1.8378l5.266-.439c.3762-.0314.7039-.279.8488-.6413L9.0709.6446Z" fill="#C1D585"/></svg>