<svg width="180" height="206" fill="none" xmlns="http://www.w3.org/2000/svg"><g clip-path="url(#a)" fill="#162E3C"><path d="M76.989 74.0085c4.3648-3.372 28.709-19.8642 33.136-22.3779 3.749-2.0846 4.61-2.881 5.409-4.9655 2.152-5.702 5.471-24.3405 6.763-38.0738.676-6.8054-3.628-10.4836-8.976-7.602-1.168.613-4.488 2.2684-7.377 3.6785-2.89 1.3489-11.2501 6.6215-18.6271 11.6489-16.5369 11.3422-16.0451 5.7018-18.873 34.027-.6147 6.5601-5.4713 34.5166 8.5451 23.6648Zm2.5205-38.3183c0-1.9619 2.0902-3.6783 15.3689-12.6295 6.5776-4.4756 12.9716-8.8903 14.1396-9.8712 2.889-2.3298 3.012-2.2682 2.397 1.4717-3.258 19.803-5.471 24.7693-7.623 30.5938-13.6472 6.9279-29.0161 18.4535-29.5694 18.147-.2459-.3679 5.2869-22.6231 5.2869-27.7118ZM71.3946 138.936c4.6107 0 34.4874-26.67 37.3154-28.693 5.841-4.169 13.095-37.1537 8.607-39.2382-1.845-.8583-1.476-.9196-5.902.1839-1.905.4905-9.836 4.0465-17.6433 7.9703-17.7664 8.8899-15.9221 5.8857-18.0123 11.1583-5.4713 13.7337-8.9754 40.7707-10.3893 43.0387-1.414 2.023 2.459 5.58 6.0245 5.58Zm5.2869-20.232c2.3976-7.541 4.9181-18.087 6.7009-25.3212 22.4386-10.1161 26.2506-12.9982 26.2506-11.7107 0 1.5327-2.398 4.7827-5.226 24.2799-5.287 3.249-16.3525 9.746-23.2992 14.958-7.3156 5.456-6.8853 5.642-4.4263-2.206ZM52.6447 97.7967c-5.1024-8.6446-13.8933.4908-15.1228 1.4109C23.813 109.508 18.1571 116.067 10.903 122.383c-3.75 3.31-1.6597 2.39-7.3155 22.377-6.2705 22.194-2.7664 26.915 15.0615 13.488 11.0655-8.338 11.6802-8.215 23.8523-16.921 5.2254-3.679 4.6721-7.419 7.5-17.474 3.3811-11.955 4.4877-22.991 2.6434-26.0563ZM36.7841 133.541c-.6762 4.23-6.5778 3.862-17.7663 11.832-8.1148 5.825-4.2417 3.617-2.213-12.201l.7377-5.762c20.9015-16.615 25.6965-22.562 25.6965-20.355 0 0-5.9631 23.42-6.4549 26.486ZM169.018 25.3902c-9.406 5.7631-33.811 24.0335-36.087 25.9954-1.905 1.5941-3.749 2.9429-4.057 2.9429-2.274 0-.553 8.6446-2.274 23.1137-2.644 22.4394-1.23 27.5278 21.208 14.2231 4.058-2.3911 10.144-5.3333 13.648-6.6208 10.636-3.9238 9.898-3.1881 10.328-9.2577.185-2.8815 1.291-8.7673 2.336-13.1815 2.521-10.1774 4.488-21.5201 5.103-28.5707.922-9.9934-4.119-12.3843-10.205-8.6444Zm-.984 18.0252c-1.844 9.5643-6.639 28.9374-6.885 31.0832-.308 2.5137-9.406 4.5982-21.27 11.3423-6.148 3.4946-5.656 4.0471-4.366-4.8428 1.292-8.6446 2.091-17.1667 2.644-22.9911 0 0 23.176-16.247 25.881-18.2702 5.964-4.4756 5.595-4.7208 3.996 3.6786ZM145.903 101.169c-13.77 8.705-22.377 14.469-23.115 14.469-2.213 0-9.221 31.758-8.483 38.319.246 2.022.799 7.663.799 8.031.676 5.089 14.754-1.656 34.795-16.799 5.594-4.231 6.332-4.599 8.668-4.475 3.75.183 4.795-1.84 6.148-11.588 4.487-33.1688 0-39.8515-18.812-27.957Zm7.746 33.842c-.062.061-3.934 2.085-8.668 4.599-17.214 9.012-22.193 13.794-21.64 11.464.308-1.226 2.89-19.373 3.812-26.608.246-1.777.676-2.697 1.66-3.188.738-.368 27.172-15.818 27.172-15.818.061.062-1.168 29.551-2.336 29.551ZM99.7967 129.8c-2.4593 1.533-15.1233 10.607-22.4388 16.125-10.8197 8.153-12.3566 10.484-15.9222 24.278-1.168 4.537-2.8278 10.485-3.6885 13.182-7.377 23.359.7377 24.4 5.9631 20.906 3.6886-2.514 25.6353-20.783 30.4304-25.32 3.5655-3.433 4.7953-4.231 5.9633-3.986 3.75.736 5.041-2.452 7.377-18.515 1.906-13.182 3.688-33.72-7.6843-26.67Zm.2463 12.385c-.6152 4.107-3.9351 23.788-3.9351 25.688 0 1.043-30.3074 22.072-29.8156 20.233 4.5492-17.903 3.8115-29.552 5.8402-29.552 1.045 0 3.627-1.716 18.6885-12.445 10.635-7.602 9.713-7.234 9.222-3.924ZM15.9441 101.966c2.3361-1.226 8.6681-7.0507 17.1515-13.856 21.3319-17.228 22.2541-18.4536 25.4508-34.3941 3.5041-17.6574 5.041-38.9934-8.9754-27.6512-4.0574 3.3108-27.2334 20.9066-30.6146 23.2363-4.7336 3.3108-9.8976 40.5256-11.7418 48.6185-.6763 3.1265 5.1639 5.8255 8.7295 4.0465Zm9.0368-44.8781c22.5614-16.983 25.6352-19.4354 25.6352-18.3931 0 .7357-4.1804 19.4354-4.5492 23.114-.3689 4.0464-13.0943 12.8131-28.1557 25.5042-1.9672 1.594.2459-.9804 7.0697-30.2251Z"/></g><defs><clipPath id="a"><path fill="#fff" d="M0 0h180v206H0z"/></clipPath></defs></svg>