<svg width="81" height="80" fill="none" xmlns="http://www.w3.org/2000/svg"><path fill-rule="evenodd" clip-rule="evenodd" d="M80.5 40c0-22.0914-17.9086-40-40-40S.5 17.9086.5 40s17.9086 40 40 40 40-17.9086 40-40Zm-45 0c0 17.5541 1.4135 32.4672 3.3796 37.8526-.3713-.385-.7725-.9157-1.196-1.632-1.1086-1.8758-2.1504-4.6732-3.042-8.2395C32.8632 60.8677 31.75 50.9743 31.75 40c0-10.9743 1.1132-20.8677 2.8916-27.9811.8916-3.5663 1.9334-6.3637 3.042-8.2395.4235-.7163.8247-1.247 1.196-1.632C36.9135 7.5328 35.5 22.4459 35.5 40Zm7.8164 36.2206c-.4235.7163-.8247 1.247-1.196 1.632C44.0865 72.4672 45.5 57.5541 45.5 40c0-17.5541-1.4135-32.4672-3.3796-37.8526.3713.385.7725.9157 1.196 1.632 1.1086 1.8758 2.1504 4.6732 3.042 8.2395C48.1368 19.1323 49.25 29.0257 49.25 40c0 10.9743-1.1132 20.8677-2.8916 27.9811-.8916 3.5663-1.9334 6.3637-3.042 8.2395Zm-6.4681 1.0286c-.4165-.3445-.8341-.7509-1.2517-1.2219-1.657-1.8689-3.2063-4.6446-4.5328-8.1819C28.4143 60.78 26.75 50.9355 26.75 40c0-10.9355 1.6643-20.78 4.3138-27.8454 1.3265-3.5372 2.8758-6.313 4.5328-8.1819.4176-.471.8352-.8774 1.2517-1.2219C33.1315 8.5853 30.5 23.0634 30.5 40c0 16.9366 2.6315 31.4147 6.3483 37.2492Zm7.3034 0c.4165-.3445.8341-.7509 1.2517-1.2219 1.657-1.8689 3.2063-4.6446 4.5328-8.1819C52.5857 60.78 54.25 50.9355 54.25 40c0-10.9355-1.6643-20.78-4.3138-27.8454-1.3265-3.5372-2.8758-6.313-4.5328-8.1819-.4176-.471-.8352-.8774-1.2517-1.2219C47.8685 8.5853 50.5 23.0634 50.5 40c0 16.9366-2.6315 31.4147-6.3483 37.2492Zm-16.6758-9.5239c2.0303 4.0605 4.4276 7.0804 7.0041 8.923C29.193 70.4638 25.5 56.3819 25.5 40c0-16.3819 3.693-30.4638 8.98-36.6483-2.5765 1.8426-4.9738 4.8625-7.0041 8.923C23.9604 19.3057 21.75 29.1063 21.75 40c0 10.8937 2.2104 20.6943 5.7259 27.7253Zm26.0482 0c-2.0303 4.0605-4.4276 7.0804-7.0041 8.923C51.807 70.4638 55.5 56.3819 55.5 40c0-16.3819-3.693-30.4638-8.98-36.6483 2.5765 1.8426 4.9738 4.8625 7.0041 8.923C57.0396 19.3057 59.25 29.1063 59.25 40c0 10.8937-2.2104 20.6943-5.7259 27.7253Zm-21.6843 8.3405c-2.9604-1.9063-5.6653-4.7766-7.9575-8.444C19.5009 60.6114 16.75 50.8489 16.75 40s2.7509-20.6114 7.1323-27.6218c2.2922-3.6674 4.9971-6.5376 7.9575-8.444C25.1307 10.39 20.5 24.1135 20.5 40c0 15.8865 4.6307 29.61 11.3398 36.0658Zm17.3204 0c2.9604-1.9063 5.6653-4.7766 7.9575-8.444C61.4991 60.6114 64.25 50.8489 64.25 40s-2.7509-20.6114-7.1323-27.6218c-2.2922-3.6674-4.9971-6.5376-7.9575-8.444C55.8693 10.39 60.5 24.1135 60.5 40c0 15.8865-4.6307 29.61-11.3398 36.0658Zm-28.8734-8.5315c2.5026 3.3368 5.4385 6.0404 8.6708 7.9565C20.9602 68.8188 15.5 55.4296 15.5 40s5.4602-28.8188 13.4576-35.4908c-3.2323 1.9161-6.1682 4.6197-8.6708 7.9565C15.0352 19.4679 11.75 29.1986 11.75 40c0 10.8014 3.2852 20.5321 8.5368 27.5343Zm40.4264 0c-2.5026 3.3368-5.4385 6.0404-8.6708 7.9565C60.0398 68.8188 65.5 55.4296 65.5 40S60.0398 11.1812 52.0424 4.5092c3.2323 1.9161 6.1682 4.6197 8.6708 7.9565C65.9648 19.4679 69.25 29.1986 69.25 40c0 10.8014-3.2852 20.5321-8.5368 27.5343Zm-34.8863 7.3629C14.5846 68.6524 6.75 55.4494 6.75 40c0-15.4494 7.8346-28.6524 19.0769-34.8972C16.6799 11.9548 10.5 25.0151 10.5 40s6.1799 28.0452 15.3269 34.8972Zm29.3461 0C66.4154 68.6524 74.25 55.4494 74.25 40c0-15.4494-7.8346-28.6524-19.0769-34.8972C64.3201 11.9548 70.5 25.0151 70.5 40s-6.1799 28.0452-15.327 34.8972ZM1.75 40c0 14.9353 8.4496 27.8972 20.8292 34.366C12.3502 67.384 5.5 54.6062 5.5 40c0-14.6062 6.8502-27.384 17.0792-34.366C10.1996 12.1028 1.75 25.0647 1.75 40Zm77.5 0c0 14.9353-8.4496 27.8972-20.8292 34.366C68.6498 67.384 75.5 54.6062 75.5 40c0-14.6062-6.8502-27.384-17.0792-34.366C70.8004 12.1028 79.25 25.0647 79.25 40ZM42.7952 68.1292C43.6918 60.9564 44.25 51.0107 44.25 40s-.5582-20.9564-1.4548-28.1292c-.4494-3.5952-.9781-6.4458-1.5477-8.3731a18.073 18.073 0 0 0-.1225-.3981v73.8008a18.073 18.073 0 0 0 .1225-.3981c.5696-1.9273 1.0983-4.7779 1.5477-8.3731ZM39.875 3.0996v73.8008a18.073 18.073 0 0 1-.1225-.3981c-.5696-1.9273-1.0983-4.7779-1.5477-8.3731C37.3082 60.9564 36.75 51.0107 36.75 40s.5582-20.9564 1.4548-28.1292c.4494-3.5952.9781-6.4458 1.5477-8.3731a18.073 18.073 0 0 1 .1225-.3981Z" fill="#DDF0A7"/></svg>